<svg xmlns="http://www.w3.org/2000/svg" viewBox="0 0 300 500">
  <defs>
    <radialGradient id="bg" cx="50%" cy="50%" r="70%">
      <stop offset="0%" stop-color="#2a1b4d"/>
      <stop offset="100%" stop-color="#05020a"/>
    </radialGradient>
    <linearGradient id="gold" x1="0%" y1="0%" x2="100%" y2="100%">
      <stop offset="0%" stop-color="#fdf4c8"/>
      <stop offset="50%" stop-color="#d4af37"/>
      <stop offset="100%" stop-color="#8c7322"/>
    </linearGradient>
  </defs>
  <rect width="300" height="500" fill="url(#bg)"/>
  <rect x="15" y="15" width="270" height="470" fill="none" stroke="url(#gold)" stroke-width="2"/>
  <rect x="25" y="25" width="250" height="450" fill="none" stroke="url(#gold)" stroke-width="1" stroke-dasharray="5,5"/>
  <circle cx="15" cy="15" r="4" fill="url(#gold)"/>
  <circle cx="285" cy="15" r="4" fill="url(#gold)"/>
  <circle cx="15" cy="485" r="4" fill="url(#gold)"/>
  <circle cx="285" cy="485" r="4" fill="url(#gold)"/>
  
  <g transform="translate(150, 250)">
    <!-- The Empress: Crown, Venus symbol, nature/wheat -->
    <!-- Crown -->
    <path d="M -30,-60 L -40,-90 L -15,-75 L 0,-100 L 15,-75 L 40,-90 L 30,-60 Z" fill="none" stroke="url(#gold)" stroke-width="3"/>
    <!-- Venus Symbol -->
    <circle cx="0" cy="-20" r="20" fill="none" stroke="url(#gold)" stroke-width="4"/>
    <line x1="0" y1="0" x2="0" y2="50" stroke="url(#gold)" stroke-width="4"/>
    <line x1="-15" y1="25" x2="15" y2="25" stroke="url(#gold)" stroke-width="4"/>
    <!-- Wheat/Nature accents -->
    <path d="M -40,10 C -60,-20 -70,20 -50,50 C -40,70 0,90 0,90" fill="none" stroke="url(#gold)" stroke-width="2"/>
    <path d="M 40,10 C 60,-20 70,20 50,50 C 40,70 0,90 0,90" fill="none" stroke="url(#gold)" stroke-width="2"/>
  </g>
</svg>
